<svg xmlns="http://www.w3.org/2000/svg" viewBox="0 0 1627.2 1549.95"><defs><style>.cls-1{fill:#f5b589;}.cls-2{fill:#f59958;}.cls-3{fill:#e30c41;}.cls-4{fill:#bf0a36;}.cls-5{fill:#00b05f;}.cls-6{fill:#008246;}.cls-7{fill:#00a357;}.cls-8{fill:#870726;}.cls-9{fill:#5c051a;}.cls-10{fill:#fff;}.cls-11{fill:#a3092e;}.cls-12{fill:#cf7d44;}.cls-13{fill:#eb8238;}.cls-14{fill:#e35d7e;}.cls-15{fill:#00d673;}.cls-16{fill:#231f20;}.cls-17{fill:none;stroke:#231f20;stroke-miterlimit:10;stroke-width:16.2px;}.cls-18{fill:#52474a;}.cls-19{fill:#f5cfb5;}.cls-20{fill:#e3446b;}</style></defs><g id="Layer_2" data-name="Layer 2"><g id="Layer_1-2" data-name="Layer 1"><rect class="cls-1" x="229.54" y="1072.64" width="189.94" height="146.22" transform="translate(649.03 2291.5) rotate(-180)"/><path class="cls-1" d="M229.54,1189.49h81.21a108.73,108.73,0,0,1,108.73,108.73v37.48a0,0,0,0,1,0,0H229.54a0,0,0,0,1,0,0V1189.49A0,0,0,0,1,229.54,1189.49Z" transform="translate(649.03 2525.19) rotate(-180)"/><rect class="cls-2" x="229.54" y="1029.91" width="189.94" height="115.83" transform="translate(649.03 2175.66) rotate(-180)"/><path class="cls-3" d="M229.54,876.69H419.49a0,0,0,0,1,0,0v95.39a126.67,126.67,0,0,1-126.67,126.67H229.54a0,0,0,0,1,0,0V876.69A0,0,0,0,1,229.54,876.69Z" transform="translate(649.03 1975.44) rotate(-180)"/><rect class="cls-1" x="344.02" y="1262.6" width="74.88" height="142.04" rx="37.44"/><rect class="cls-3" x="714.6" y="1423.84" width="192.92" height="126.11"/><rect class="cls-4" x="714.6" y="1353.64" width="192.92" height="126.11"/><rect class="cls-5" x="714.6" y="1250.93" width="192.92" height="175.71"/><rect class="cls-6" x="714.6" y="1232.79" width="192.92" height="157.88"/><rect class="cls-3" x="692.28" y="1426.64" width="245.16" height="29.7"/><path class="cls-3" d="M723.45,1486.89h86a0,0,0,0,1,0,0v63.05a0,0,0,0,1,0,0h-149a0,0,0,0,1,0,0v0A63.05,63.05,0,0,1,723.45,1486.89Z"/><rect class="cls-3" x="422.35" y="1422.64" width="192.92" height="126.11"/><rect class="cls-4" x="422.35" y="1352.44" width="192.92" height="126.11"/><rect class="cls-5" x="422.35" y="1249.73" width="192.92" height="175.71"/><rect class="cls-6" x="422.35" y="1231.58" width="192.92" height="157.88"/><rect class="cls-3" x="400.03" y="1425.44" width="245.16" height="29.7"/><path class="cls-3" d="M431.21,1485.69h86a0,0,0,0,1,0,0v63.05a0,0,0,0,1,0,0h-149a0,0,0,0,1,0,0v0A63.05,63.05,0,0,1,431.21,1485.69Z"/><rect class="cls-7" x="341.28" y="921.24" width="619.92" height="398.16" rx="125.64"/><path class="cls-5" d="M961.2,992.88v146.88c0,69.39-62.57,125.64-139.76,125.64H481c-77.19,0-139.76-56.25-139.76-125.64V992.88c0-69.39,62.57-125.64,139.76-125.64h340.4C898.63,867.24,961.2,923.49,961.2,992.88Z"/><path class="cls-8" d="M961.2,992.88v28.44H341.28V992.88c0-69.39,62.57-125.64,139.76-125.64h340.4C898.63,867.24,961.2,923.49,961.2,992.88Z"/><path class="cls-8" d="M961.2,1029.57v36.75H341.28v-36.75a188.44,188.44,0,0,1,2.09-28.14C354.84,925.19,412.12,867.24,481,867.24h340.4C898.63,867.24,961.2,939.92,961.2,1029.57Z"/><path class="cls-9" d="M637.13,867.24c-11.46,59-68.74,103.86-137.67,103.86H343.37c11.47-59,68.75-103.86,137.67-103.86Z"/><circle class="cls-10" cx="461.08" cy="1044.41" r="50.71"/><path class="cls-6" d="M524.57,1053.1a64.08,64.08,0,1,0,.59,8.68A64.17,64.17,0,0,0,524.57,1053.1Zm-109.08-8.69a45.59,45.59,0,1,1,90.35,8.69,45.59,45.59,0,1,1-89.52,0A45.24,45.24,0,0,1,415.49,1044.41Z"/><rect x="441.91" y="876.96" width="38.33" height="117.17"/><path d="M461.08,980.33a64.09,64.09,0,1,0,64.08,64.08A64.16,64.16,0,0,0,461.08,980.33Zm44.76,72.77a45.62,45.62,0,1,1,.83-8.69A45.67,45.67,0,0,1,505.84,1053.1Z"/><circle class="cls-10" cx="696.52" cy="1044.41" r="50.71"/><path class="cls-6" d="M760,1053.1a64.08,64.08,0,1,0,.59,8.68A64.17,64.17,0,0,0,760,1053.1Zm-109.08-8.69a45.59,45.59,0,1,1,90.35,8.69,45.59,45.59,0,1,1-89.52,0A45.24,45.24,0,0,1,650.93,1044.41Z"/><rect x="677.35" y="876.96" width="38.33" height="117.17"/><path d="M696.52,980.33a64.09,64.09,0,1,0,64.08,64.08A64.16,64.16,0,0,0,696.52,980.33Zm44.76,72.77a45.62,45.62,0,1,1,.83-8.69A45.67,45.67,0,0,1,741.28,1053.1Z"/><path class="cls-8" d="M1332.72,338.4H1627.2a0,0,0,0,1,0,0v0A223.2,223.2,0,0,1,1404,561.6H1185.12a0,0,0,0,1,0,0V486A147.6,147.6,0,0,1,1332.72,338.4Z"/><circle class="cls-11" cx="1118.88" cy="515.36" r="146.88"/><path class="cls-2" d="M1118.88,443.68V630a255.43,255.43,0,0,1-2.25,33.84C1100,788.58,992.39,885.6,863.28,885.6H331.92c-129.11,0-236.67-97-253.35-221.76A255.43,255.43,0,0,1,76.32,630V443.68c0-68.2,55.8-124,124-124H994.88C1063.08,319.68,1118.88,375.48,1118.88,443.68Z"/><path class="cls-4" d="M1118.88,412v103.4a3,3,0,0,1-3,3H79.35a3,3,0,0,1-3-3V412c0-226.6,185.39-412,412-412H706.89C933.49,0,1118.88,185.39,1118.88,412Z"/><path class="cls-3" d="M937.44,412v103.4a3,3,0,0,1-3,3H79.35a3,3,0,0,1-3-3V412c0-226.6,185.39-412,412-412h37.14C752.05,0,937.44,185.39,937.44,412Z"/><path class="cls-12" d="M1118.88,581.76V630a255.43,255.43,0,0,1-2.25,33.84H867.24V713a72.9,72.9,0,1,1-145.8,0V663.84H78.57A255.43,255.43,0,0,1,76.32,630V581.76Z"/><path d="M1175,561.6H0v82.08H721.44v49.14a72.9,72.9,0,0,0,72.9,72.9h0a72.9,72.9,0,0,0,72.9-72.9V643.68H1175Z"/><rect x="214.56" y="652.5" width="47.52" height="102.06" rx="23.76"/><circle class="cls-2" cx="1107.36" cy="663.84" r="77.76"/><circle class="cls-13" cx="1107.36" cy="663.84" r="25.92"/><rect class="cls-14" x="304.56" y="194.4" width="421.2" height="64.8" rx="32.4"/><rect class="cls-14" x="179.28" y="412.56" width="600.48" height="47.52" rx="23.76"/><path class="cls-3" d="M1180.76,518.4h160.47a185.13,185.13,0,0,1,185.13,185.13v0a0,0,0,0,1,0,0H1329.49A148.73,148.73,0,0,1,1180.76,554.8V518.4A0,0,0,0,1,1180.76,518.4Z"/><rect class="cls-14" x="1232.64" y="586.08" width="201.6" height="41.76" rx="20.88"/><rect class="cls-15" x="501.99" y="1177.2" width="194.53" height="49.68" rx="24.84"/><rect class="cls-1" x="856.15" y="1080.74" width="189.94" height="146.22"/><path class="cls-16" d="M856.15,1213.58h189.94a0,0,0,0,1,0,0v67.74a78.48,78.48,0,0,1-78.48,78.48h-33a78.48,78.48,0,0,1-78.48-78.48v-67.74A0,0,0,0,1,856.15,1213.58Z"/><rect class="cls-2" x="856.15" y="1038.02" width="189.94" height="115.83"/><path class="cls-3" d="M856.15,884.79h63.27a126.67,126.67,0,0,1,126.67,126.67v95.39a0,0,0,0,1,0,0H856.15a0,0,0,0,1,0,0V884.79A0,0,0,0,1,856.15,884.79Z"/><path class="cls-17" d="M1019.21,1444.27A60.25,60.25,0,1,1,959,1384"/><rect class="cls-16" x="944.45" y="1304.72" width="14.51" height="86.65"/><circle class="cls-18" cx="908.64" cy="1298.88" r="20.52"/><rect class="cls-19" x="257.76" y="1165.39" width="27.36" height="97.2" rx="13.68"/><rect class="cls-20" x="406.08" y="1517.22" width="111.11" height="16.38" rx="8.19"/></g></g></svg>